<?xml version="1.0" standalone="no"?>
<!DOCTYPE svg PUBLIC "-//W3C//DTD SVG 20010904//EN"
 "http://www.w3.org/TR/2001/REC-SVG-20010904/DTD/svg10.dtd">
<svg version="1.0" xmlns="http://www.w3.org/2000/svg"
 width="1280.000000pt" height="860.000000pt" viewBox="0 0 1280.000000 860.000000"
 preserveAspectRatio="xMidYMid meet">
<g transform="translate(0.000000,860.000000) scale(0.100000,-0.100000)"
fill="#000000" stroke="none">
<path d="M6045 8123 c-192 -258 -1447 -1944 -2789 -3748 -1343 -1804 -2624
-3525 -2847 -3825 l-405 -545 3198 -3 c1759 -1 4637 -1 6396 0 l3198 3 -454
610 c-801 1075 -3583 4813 -4713 6330 -602 809 -1123 1509 -1158 1558 -35 48
-67 87 -71 87 -4 0 -164 -210 -355 -467z m1655 -1970 c1173 -1572 1767 -2371
1992 -2678 l81 -110 -54 50 c-116 108 -345 282 -559 425 -411 275 -866 499
-1319 649 -723 239 -1522 300 -2226 170 -771 -143 -1571 -516 -2324 -1085
-101 -76 -193 -146 -204 -154 -11 -8 60 94 159 227 98 132 847 1141 1664 2241
817 1101 1487 2001 1490 2001 3 0 588 -781 1300 -1736z m-2300 -2615 c-111
-188 -190 -379 -226 -543 -27 -127 -23 -314 10 -440 65 -249 244 -505 514
-733 48 -41 66 -62 54 -62 -33 0 -283 49 -412 80 -614 150 -1178 422 -1633
786 -126 101 -129 80 27 203 439 343 965 585 1631 749 68 17 69 15 35 -40z
m2119 12 c489 -128 970 -338 1336 -583 81 -55 286 -211 308 -235 17 -18 14
-22 -85 -101 -491 -391 -1054 -657 -1707 -806 -156 -35 -349 -70 -356 -63 -2
2 23 25 55 52 148 119 311 305 401 456 170 287 189 617 54 960 -43 108 -92
210 -141 291 -35 59 -39 69 -26 69 4 0 76 -18 161 -40z m-1295 -113 c21 -72
40 -140 43 -149 3 -11 0 -18 -9 -18 -31 0 -161 -72 -206 -114 -70 -66 -121
-180 -122 -273 l0 -33 -150 0 -150 0 0 39 c0 22 6 73 14 113 37 194 137 336
319 455 58 38 200 112 217 113 3 0 22 -60 44 -133z m-2087 -12 c-350 -189
-687 -423 -906 -630 l-63 -61 89 -84 c216 -204 632 -466 1040 -654 536 -247
1100 -402 1678 -462 227 -24 666 -24 890 0 801 84 1541 359 2255 838 127 86
387 278 457 339 l33 28 -73 65 c-264 237 -595 459 -956 641 -61 31 -111 58
-111 60 0 17 1036 -314 1410 -451 79 -29 146 -52 147 -50 2 1 -11 22 -29 47
-17 24 -27 40 -21 34 7 -5 450 -604 987 -1330 l975 -1320 -2770 -3 c-1523 -1
-4015 -1 -5538 0 l-2770 3 958 1289 957 1290 250 82 c723 240 1250 413 1259
413 6 1 -61 -38 -148 -84z m-1067 -29 c0 -2 -8 -10 -17 -17 -16 -13 -17 -12
-4 4 13 16 21 21 21 13z m6721 -53 c13 -16 12 -17 -3 -4 -10 7 -18 15 -18 17
0 8 8 3 21 -13z m30 -40 c13 -16 12 -17 -3 -4 -10 7 -18 15 -18 17 0 8 8 3 21
-13z m39 -53 c12 -16 19 -30 16 -30 -2 0 -14 14 -26 30 -12 17 -19 30 -16 30
2 0 14 -13 26 -30z m41 -57 c13 -16 12 -17 -3 -4 -10 7 -18 15 -18 17 0 8 8 3
21 -13z m30 -40 c13 -16 12 -17 -3 -4 -10 7 -18 15 -18 17 0 8 8 3 21 -13z
m30 -40 c13 -16 12 -17 -3 -4 -10 7 -18 15 -18 17 0 8 8 3 21 -13z"/>
</g>
</svg>
